<svg width="11.576in" height="3.163in" version="1.1" viewBox="0 0 11.576 3.163" xmlns="http://www.w3.org/2000/svg">
  <style>@media (prefers-color-scheme: dark) { g.invert { filter: invert(); } }</style>
  <defs>
    <marker id="b" overflow="visible" markerHeight="4.6242776" markerWidth="4" orient="auto-start-reverse" preserveAspectRatio="xMidYMid" viewBox="0 0 5.3244081 6.1553851">
      <path transform="scale(.5)" d="m5.77 0-8.65 5v-10z" fill="context-stroke" fill-rule="evenodd" stroke="context-stroke" stroke-width="1pt"/>
    </marker>
    <marker id="a" overflow="visible" markerHeight="4.6242776" markerWidth="4" orient="auto-start-reverse" preserveAspectRatio="xMidYMid" viewBox="0 0 5.3244081 6.1553851">
      <path transform="scale(.5)" d="m5.77 0-8.65 5v-10z" fill="context-stroke" fill-rule="evenodd" stroke="context-stroke" stroke-width="1pt"/>
    </marker>
  </defs>
  <g class="invert" transform="translate(-.40204 -3.312)">
    <text transform="scale(.010417)" fill="#000000" font-family="Arial" font-size="32px" stroke-width="5" text-align="center" style="line-height:125%;shape-inside:url(#rect1316);white-space:pre" xml:space="preserve"/>
    <g transform="translate(1.0002 .99979)">
      <path d="m0.54099 4.3359h9.2977" fill="none" marker-end="url(#a)" marker-start="url(#b)" stroke="#000" stroke-miterlimit="0" stroke-width=".052083" style="paint-order:normal"/>
      <g stroke-width=".052083" aria-label="Static tables">
        <path d="m0.92748 3.8895 0.029785-0.0026q0.002116 0.017904 0.009766 0.02946 0.007812 0.011393 0.024088 0.018555 0.016276 7e-3 0.036621 7e-3 0.018066 0 0.031901-0.00537t0.020508-0.014648q0.00684-0.00944 0.00684-0.020508 0-0.01123-0.00651-0.019531-0.00651-0.00846-0.021484-0.01416-0.0096-0.00374-0.04248-0.011556-0.032878-0.00798-0.046061-0.014974-0.01709-0.00895-0.025553-0.022135-0.008301-0.013346-0.008301-0.029785 0-0.018066 0.010254-0.033691 0.010254-0.015788 0.029948-0.023926 0.019694-0.00814 0.043782-0.00814 0.02653 0 0.046712 0.00863 0.020345 0.00846 0.03125 0.025065 0.010905 0.016602 0.011719 0.037598l-0.030273 0.00228q-0.00244-0.022624-0.016602-0.03418-0.013997-0.011556-0.041504-0.011556-0.028646 0-0.041829 0.010579-0.013021 0.010417-0.013021 0.025228 0 0.012858 0.009277 0.021159 0.009115 0.0083 0.047526 0.01709 0.038574 0.00863 0.052897 0.015137 0.020833 0.0096 0.030762 0.024414 0.00993 0.014649 0.00993 0.033854 0 0.019043-0.010905 0.03597-0.010905 0.016764-0.031413 0.026204-0.020345 0.00928-0.045898 0.00928-0.032389 0-0.054362-0.00944-0.02181-0.00944-0.034342-0.02832-0.01237-0.019043-0.013021-0.042969z"/>
        <path d="m1.2208 3.94 0.00423 0.025879q-0.01237 0.0026-0.022135 0.0026-0.01595 0-0.02474-0.00505t-0.01237-0.013184q-0.00358-0.0083-0.00358-0.034668v-0.099438h-0.021484v-0.022787h0.021484v-0.042806l0.029134-0.017578v0.060384h0.02946v0.022787h-0.02946v0.10107q0 0.012533 0.00146 0.016113 0.00163 0.00358 0.00505 0.0057 0.00358 0.00212 0.010091 0.00212 0.00488 0 0.012858-0.00114z"/>
        <path d="m1.3622 3.9448q-0.016276 0.013835-0.031413 0.019531-0.014974 0.0057-0.032226 0.0057-0.028483 0-0.043783-0.013835-0.0153-0.013997-0.0153-0.035645 0-0.012695 0.0057-0.023112 0.00586-0.010579 0.015137-0.016927 0.00944-0.00635 0.021159-0.0096 0.00863-0.00228 0.026042-0.00439 0.035482-0.00423 0.052246-0.010091 1.628e-4 -0.00602 1.628e-4 -0.00765 0-0.017904-0.0083-0.025228-0.01123-0.00993-0.033366-0.00993-0.020671 0-0.030599 0.00732-0.00977 0.00716-0.014486 0.025553l-0.028646-0.00391q0.00391-0.018392 0.012858-0.029622 0.00895-0.011393 0.025879-0.017415 0.016927-0.00618 0.039225-0.00618 0.022135 0 0.03597 0.00521t0.020345 0.013184q0.00651 0.00781 0.00911 0.019857 0.00146 0.00749 0.00146 0.027018v0.039063q0 0.040853 0.00179 0.051758 0.00195 0.010742 0.00749 0.02067h-0.030595q-0.00456-0.00911-0.00586-0.021322zm-0.00244-0.06543q-0.01595 0.00651-0.047851 0.011068-0.018066 0.0026-0.025553 0.00586-0.00749 0.00326-0.011556 0.0096-0.00407 0.00618-0.00407 0.013835 0 0.011719 0.00879 0.019531 0.00895 0.00781 0.026042 0.00781 0.016927 0 0.030111-0.00732 0.013184-0.00749 0.019368-0.020345 0.00472-0.00993 0.00472-0.029297z"/>
        <path d="m1.4988 3.94 0.00423 0.025879q-0.01237 0.0026-0.022135 0.0026-0.01595 0-0.024739-0.00505-0.00879-0.00505-0.01237-0.013184-0.00358-0.0083-0.00358-0.034668v-0.099438h-0.021484v-0.022787h0.021484v-0.042806l0.029134-0.017578v0.060384h0.02946v0.022787h-0.02946v0.10107q0 0.012533 0.00146 0.016113 0.00163 0.00358 0.00505 0.0057 0.00358 0.00212 0.010091 0.00212 0.00488 0 0.012858-0.00114z"/>
        <path d="m1.5276 3.7612v-0.033691h0.029297v0.033691zm0 0.20492v-0.17285h0.029297v0.17285z"/>
        <path d="m1.7143 3.9028 0.028809 0.00374q-0.00472 0.029785-0.024251 0.046712-0.019368 0.016764-0.047689 0.016764-0.035482 0-0.057129-0.023112-0.021484-0.023275-0.021484-0.066569 0-0.027995 0.00928-0.048991t0.028157-0.031413q0.019043-0.010579 0.041341-0.010579 0.028158 0 0.046061 0.014323 0.017904 0.01416 0.022949 0.040365l-0.028483 0.00439q-0.00407-0.017415-0.014486-0.026204-0.010254-0.00879-0.024902-0.00879-0.022135 0-0.03597 0.015951-0.013835 0.015788-0.013835 0.05013 0 0.034831 0.013346 0.050618 0.013346 0.015788 0.034831 0.015788 0.017253 0 0.028809-0.010579t0.014648-0.032552z"/>
        <path d="m1.9247 3.94 0.00423 0.025879q-0.01237 0.0026-0.022135 0.0026-0.015951 0-0.02474-0.00505-0.00879-0.00505-0.01237-0.013184-0.00358-0.0083-0.00358-0.034668v-0.099438h-0.021483v-0.022787h0.021484v-0.042806l0.029134-0.017578v0.060384h0.02946v0.022787h-0.02946v0.10107q0 0.012533 0.00146 0.016113 0.00163 0.00358 0.00505 0.0057 0.00358 0.00212 0.010091 0.00212 0.00488 0 0.012858-0.00114z"/>
        <path d="m2.0661 3.9448q-0.016276 0.013835-0.031413 0.019531-0.014974 0.0057-0.032227 0.0057-0.028483 0-0.043782-0.013835-0.0153-0.013997-0.0153-0.035645 0-0.012695 0.0057-0.023112 0.00586-0.010579 0.015137-0.016927 0.00944-0.00635 0.021159-0.0096 0.00863-0.00228 0.026042-0.00439 0.035482-0.00423 0.052246-0.010091 1.628e-4 -0.00602 1.628e-4 -0.00765 0-0.017904-0.0083-0.025228-0.01123-0.00993-0.033366-0.00993-0.020671 0-0.030599 0.00732-0.00977 0.00716-0.014486 0.025553l-0.028646-0.00391q0.00391-0.018392 0.012858-0.029622 0.00895-0.011393 0.025879-0.017415 0.016927-0.00618 0.039225-0.00618 0.022135 0 0.03597 0.00521t0.020345 0.013184q0.00651 0.00781 0.00911 0.019857 0.00146 0.00749 0.00146 0.027018v0.039063q0 0.040853 0.00179 0.051758 0.00195 0.010742 0.00749 0.02067h-0.030599q-0.00456-0.00911-0.00586-0.021322zm-0.00244-0.06543q-0.015951 0.00651-0.047852 0.011068-0.018066 0.0026-0.025553 0.00586-0.00749 0.00326-0.011556 0.0096-0.00407 0.00618-0.00407 0.013835 0 0.011719 0.00879 0.019531 0.00895 0.00781 0.026042 0.00781 0.016927 0 0.030111-0.00732 0.013184-0.00749 0.019369-0.020345 0.00472-0.00993 0.00472-0.029297z"/>
        <path d="m2.1658 3.9662h-0.027181v-0.23861h0.029297v0.085124q0.018555-0.023275 0.047363-0.023275 0.015951 0 0.030111 0.00651 0.014323 0.00635 0.023437 0.018066 0.00928 0.011556 0.014486 0.027995 0.00521 0.016439 0.00521 0.035156 0 0.044433-0.021973 0.068685-0.021973 0.024251-0.052734 0.024251-0.030599 0-0.048014-0.025553zm-3.255e-4 -0.087728q0 0.031087 0.00846 0.044922 0.013835 0.022624 0.037435 0.022624 0.019206 0 0.033203-0.016602 0.013997-0.016764 0.013997-0.049805 0-0.033854-0.013509-0.049967-0.013346-0.016113-0.032389-0.016113-0.019206 0-0.033203 0.016764-0.013997 0.016602-0.013997 0.048177z"/>
        <path d="m2.3235 3.9662v-0.23861h0.029297v0.23861z"/>
        <path d="m2.5165 3.9105 0.030273 0.00374q-0.00716 0.02653-0.02653 0.041178-0.019369 0.014648-0.049479 0.014648-0.037923 0-0.060221-0.023275-0.022135-0.023437-0.022135-0.065592 0-0.04362 0.022461-0.067708t0.058268-0.024088q0.034668 0 0.056641 0.0236t0.021973 0.066406q0 0.0026-1.628e-4 0.00781h-0.12891q0.00163 0.028483 0.016113 0.04362 0.014486 0.015137 0.036133 0.015137 0.016113 0 0.027506-0.00846t0.018066-0.027018zm-0.096191-0.047363h0.096517q-0.00195-0.02181-0.011068-0.032715-0.013997-0.016927-0.036296-0.016927-0.020182 0-0.034017 0.013509-0.013672 0.013509-0.015137 0.036133z"/>
        <path d="m2.5718 3.9146 0.028971-0.00456q0.00244 0.017415 0.013509 0.026693 0.01123 0.00928 0.03125 0.00928 0.020182 0 0.029948-0.00814 0.00977-0.0083 0.00977-0.019368 0-0.00993-0.00863-0.015625-0.00602-0.00391-0.029948-0.00993-0.032227-0.00814-0.044759-0.013997-0.01237-0.00602-0.01888-0.016439-0.00635-0.010579-0.00635-0.023275 0-0.011556 0.00521-0.021322 0.00537-0.00993 0.014486-0.016439 0.00684-0.00505 0.018555-0.00846 0.011882-0.00358 0.025391-0.00358 0.020345 0 0.035645 0.00586 0.015462 0.00586 0.022786 0.015951 0.00732 0.00993 0.010091 0.026693l-0.028646 0.00391q-0.00195-0.013346-0.011393-0.020833-0.00928-0.00749-0.026367-0.00749-0.020182 0-0.028809 0.00667-0.00863 0.00667-0.00863 0.015625 0 0.0057 0.00358 0.010254 0.00358 0.00472 0.01123 0.00781 0.00439 0.00163 0.025879 0.00749 0.031087 0.0083 0.043294 0.013672 0.01237 0.00521 0.019369 0.015299 7e-3 0.010091 7e-3 0.025065 0 0.014648-0.00863 0.027669-0.00846 0.012858-0.024577 0.02002-0.016113 7e-3 -0.036458 7e-3 -0.033691 0-0.051432-0.013997-0.017578-0.013997-0.022461-0.041504z"/>
      </g>
      <g stroke-width=".052083" aria-label="Normal spreadsheets">
        <path d="m3.5274 3.5506v-0.23861h0.032389l0.12533 0.18734v-0.18734h0.030273v0.23861h-0.032389l-0.12533-0.1875v0.1875z"/>
        <path d="m3.7538 3.4642q0-0.048014 0.026693-0.071126 0.022298-0.019206 0.054362-0.019206 0.035644 0 0.058268 0.023437 0.022624 0.023275 0.022624 0.064453 0 0.033366-0.010091 0.052571-0.00993 0.019043-0.029134 0.029622-0.019043 0.010579-0.041667 0.010579-0.036296 0-0.058756-0.023275-0.022298-0.023275-0.022298-0.067057zm0.030111 0q0 0.033203 0.014486 0.049805 0.014486 0.016439 0.036458 0.016439 0.02181 0 0.036296-0.016602t0.014486-0.050619q0-0.032064-0.014648-0.048502-0.014486-0.016602-0.036133-0.016602-0.021973 0-0.036458 0.016439-0.014486 0.016439-0.014486 0.049642z"/>
        <path d="m3.9498 3.5506v-0.17285h0.026367v0.026204q0.010091-0.018392 0.018555-0.024251 0.00863-0.00586 0.01888-0.00586 0.014811 0 0.030111 0.00944l-0.010091 0.027181q-0.010742-0.00635-0.021484-0.00635-0.0096 0-0.017253 0.00586-0.00765 0.0057-0.010905 0.015951-0.00488 0.015625-0.00488 0.03418v0.090495z"/>
        <path d="m4.0611 3.5506v-0.17285h0.026204v0.024251q0.00814-0.012695 0.021647-0.020345 0.013509-0.00781 0.030762-0.00781 0.019206 0 0.031413 0.00798 0.01237 0.00798 0.017415 0.022298 0.020508-0.030273 0.053385-0.030273 0.025716 0 0.039551 0.014323 0.013835 0.01416 0.013835 0.043783v0.11864h-0.029134v-0.10889q0-0.017578-0.00293-0.025228-0.00277-0.00781-0.010254-0.012532-0.00749-0.00472-0.017578-0.00472-0.018229 0-0.030273 0.012207-0.012044 0.012044-0.012044 0.038737v0.10042h-0.029297v-0.1123q0-0.019531-0.00716-0.029297-0.00716-0.00977-0.023437-0.00977-0.01237 0-0.022949 0.00651-0.010417 0.00651-0.015137 0.019043-0.00472 0.012532-0.00472 0.036133v0.089681z"/>
        <path d="m4.4516 3.5293q-0.016276 0.013835-0.031413 0.019531-0.014974 0.0057-0.032227 0.0057-0.028483 0-0.043783-0.013835-0.015299-0.013997-0.015299-0.035645 0-0.012695 0.0057-0.023112 0.00586-0.010579 0.015137-0.016927 0.00944-0.00635 0.021159-0.0096 0.00863-0.00228 0.026042-0.00439 0.035482-0.00423 0.052246-0.010091 1.628e-4 -0.00602 1.628e-4 -0.00765 0-0.017904-0.0083-0.025228-0.01123-0.00993-0.033366-0.00993-0.02067 0-0.030599 0.00732-0.00977 0.00716-0.014486 0.025553l-0.028646-0.00391q0.00391-0.018392 0.012858-0.029622 0.00895-0.011393 0.025879-0.017415 0.016927-0.00618 0.039225-0.00618 0.022135 0 0.03597 0.00521t0.020345 0.013184q0.00651 0.00781 0.00911 0.019857 0.00146 0.00749 0.00146 0.027018v0.039063q0 0.040853 0.00179 0.051758 0.00195 0.010742 0.00749 0.020671h-0.030599q-0.00456-0.00911-0.00586-0.021322zm-0.00244-0.06543q-0.01595 0.00651-0.047852 0.011068-0.018066 0.0026-0.025553 0.00586-0.00749 0.00326-0.011556 0.0096-0.00407 0.00618-0.00407 0.013835 0 0.011719 0.00879 0.019531 0.00895 0.00781 0.026042 0.00781 0.016927 0 0.030111-0.00732 0.013184-0.00749 0.019368-0.020345 0.00472-0.00993 0.00472-0.029297z"/>
        <path d="m4.5235 3.5506v-0.23861h0.029297v0.23861z"/>
        <path d="m3.0487 3.9157 0.028971-0.00456q0.00244 0.017415 0.013509 0.026693 0.01123 0.00928 0.03125 0.00928 0.020182 0 0.029948-0.00814 0.00977-0.0083 0.00977-0.019368 0-0.00993-0.00863-0.015625-0.00602-0.00391-0.029948-0.00993-0.032227-0.00814-0.044759-0.013997-0.01237-0.00602-0.01888-0.016439-0.00635-0.010579-0.00635-0.023275 0-0.011556 0.00521-0.021322 0.00537-0.00993 0.014486-0.016439 0.00684-0.00505 0.018555-0.00846 0.011881-0.00358 0.025391-0.00358 0.020345 0 0.035645 0.00586 0.015462 0.00586 0.022786 0.015951 0.00732 0.00993 0.010091 0.026693l-0.028646 0.00391q-0.00195-0.013346-0.011393-0.020833-0.00928-0.00749-0.026367-0.00749-0.020182 0-0.028809 0.00667-0.00863 0.00667-0.00863 0.015625 0 0.0057 0.00358 0.010254 0.00358 0.00472 0.01123 0.00781 0.00439 0.00163 0.025879 0.00749 0.031087 0.0083 0.043294 0.013672 0.01237 0.00521 0.019369 0.015299 7e-3 0.010091 7e-3 0.025065 0 0.014648-0.00863 0.027669-0.00846 0.012858-0.024577 0.02002-0.016113 7e-3 -0.036458 7e-3 -0.033691 0-0.051432-0.013997-0.017578-0.013997-0.022461-0.041504z"/>
        <path d="m3.2271 4.0335v-0.23909h0.026693v0.022461q0.00944-0.013184 0.021322-0.019694 0.011881-0.00667 0.028809-0.00667 0.022135 0 0.039063 0.011393 0.016927 0.011393 0.025553 0.032227 0.00863 0.020671 0.00863 0.04541 0 0.02653-0.0096 0.047852-0.00944 0.021159-0.027669 0.032552-0.018066 0.011231-0.038086 0.011231-0.014648 0-0.026367-0.00618-0.011556-0.00618-0.019043-0.015625v0.084147zm0.02653-0.15169q0 0.033366 0.013509 0.049316t0.032715 0.01595q0.019531 0 0.033366-0.016439 0.013997-0.016602 0.013997-0.051269 0-0.03304-0.013672-0.049479-0.013509-0.016439-0.032389-0.016439-0.018718 0-0.033203 0.017578-0.014323 0.017415-0.014323 0.050782z"/>
        <path d="m3.4122 3.9673v-0.17285h0.026367v0.026204q0.010091-0.018392 0.018555-0.024251 0.00863-0.00586 0.01888-0.00586 0.014811 0 0.030111 0.00944l-0.010091 0.027181q-0.010742-0.00635-0.021484-0.00635-0.0096 0-0.017253 0.00586-0.00765 0.0057-0.010905 0.01595-0.00488 0.015625-0.00488 0.03418v0.090495z"/>
        <path d="m3.6418 3.9116 0.030273 0.00374q-0.00716 0.02653-0.02653 0.041178-0.019369 0.014649-0.049479 0.014649-0.037923 0-0.060221-0.023275-0.022135-0.023437-0.022135-0.065592 0-0.04362 0.022461-0.067708t0.058268-0.024088q0.034668 0 0.056641 0.0236t0.021973 0.066406q0 0.0026-1.627e-4 0.00781h-0.12891q0.00163 0.028483 0.016113 0.04362 0.014486 0.015137 0.036133 0.015137 0.016113 0 0.027506-0.00846t0.018066-0.027018zm-0.096191-0.047363h0.096517q-0.00195-0.02181-0.011068-0.032715-0.013997-0.016927-0.036296-0.016927-0.020182 0-0.034017 0.013509-0.013672 0.013509-0.015137 0.036133z"/>
        <path d="m3.8217 3.9459q-0.016276 0.013835-0.031413 0.019531-0.014974 0.0057-0.032227 0.0057-0.028483 0-0.043782-0.013835-0.015299-0.013997-0.015299-0.035645 0-0.012695 0.0057-0.023112 0.00586-0.010579 0.015137-0.016927 0.00944-0.00635 0.021159-0.0096 0.00863-0.00228 0.026042-0.00439 0.035482-0.00423 0.052246-0.010091 1.628e-4 -0.00602 1.628e-4 -0.00765 0-0.017904-0.0083-0.025228-0.01123-0.00993-0.033366-0.00993-0.02067 0-0.030599 0.00732-0.00977 0.00716-0.014486 0.025553l-0.028646-0.00391q0.00391-0.018392 0.012858-0.029622 0.00895-0.011393 0.025879-0.017415 0.016927-0.00618 0.039225-0.00618 0.022135 0 0.03597 0.00521t0.020345 0.013184q0.00651 0.00781 0.00911 0.019857 0.00146 0.00749 0.00146 0.027018v0.039063q0 0.040853 0.00179 0.051758 0.00195 0.010742 0.00749 0.020671h-0.030599q-0.00456-0.00911-0.00586-0.021322zm-0.00244-0.06543q-0.015951 0.00651-0.047852 0.011068-0.018066 0.0026-0.025553 0.00586-0.00749 0.00326-0.011556 0.0096-0.00407 0.00618-0.00407 0.013835 0 0.011719 0.00879 0.019531 0.00895 0.00781 0.026042 0.00781 0.016927 0 0.030111-0.00732 0.013184-0.00749 0.019368-0.020345 0.00472-0.00993 0.00472-0.029297z"/>
        <path d="m4.0064 3.9673v-0.02181q-0.016439 0.025716-0.04834 0.025716-0.020671 0-0.038086-0.011393-0.017253-0.011393-0.026855-0.031738-0.00944-0.020508-0.00944-0.047038 0-0.025879 0.00863-0.046875 0.00863-0.021159 0.025879-0.032389 0.017253-0.01123 0.038574-0.01123 0.015625 0 0.027832 0.00667 0.012207 0.00651 0.019857 0.01709v-0.085612h0.029134v0.23861zm-0.092611-0.086263q0 0.033203 0.013997 0.049642t0.03304 0.016439q0.019206 0 0.032552-0.015625 0.013509-0.015788 0.013509-0.048014 0-0.035482-0.013672-0.052083-0.013672-0.016602-0.033691-0.016602-0.019531 0-0.032715 0.015951-0.013021 0.01595-0.013021 0.050293z"/>
        <path d="m4.0679 3.9157 0.028971-0.00456q0.00244 0.017415 0.013509 0.026693 0.01123 0.00928 0.03125 0.00928 0.020182 0 0.029948-0.00814 0.00977-0.0083 0.00977-0.019368 0-0.00993-0.00863-0.015625-0.00602-0.00391-0.029948-0.00993-0.032227-0.00814-0.044759-0.013997-0.01237-0.00602-0.01888-0.016439-0.00635-0.010579-0.00635-0.023275 0-0.011556 0.00521-0.021322 0.00537-0.00993 0.014486-0.016439 0.00684-0.00505 0.018555-0.00846 0.011881-0.00358 0.025391-0.00358 0.020345 0 0.035645 0.00586 0.015462 0.00586 0.022786 0.015951 0.00732 0.00993 0.010091 0.026693l-0.028646 0.00391q-0.00195-0.013346-0.011393-0.020833-0.00928-0.00749-0.026367-0.00749-0.020182 0-0.028809 0.00667-0.00863 0.00667-0.00863 0.015625 0 0.0057 0.00358 0.010254 0.00358 0.00472 0.01123 0.00781 0.00439 0.00163 0.025879 0.00749 0.031087 0.0083 0.043294 0.013672 0.01237 0.00521 0.019369 0.015299 7e-3 0.010091 7e-3 0.025065 0 0.014648-0.00863 0.027669-0.00846 0.012858-0.024577 0.02002-0.016113 7e-3 -0.036458 7e-3 -0.033691 0-0.051432-0.013997-0.017578-0.013997-0.022461-0.041504z"/>
        <path d="m4.2463 3.9673v-0.23861h0.029297v0.085612q0.020508-0.023763 0.051758-0.023763 0.019206 0 0.033366 0.00765 0.01416 0.00749 0.020182 0.020833 0.00618 0.013346 0.00618 0.038737v0.10954h-0.029292v-0.10954q0-0.021973-0.0096-0.031901-0.00944-0.010091-0.026855-0.010091-0.013021 0-0.024577 0.00684-0.011393 0.00667-0.016276 0.018229-0.00488 0.011556-0.00488 0.031901v0.094564z"/>
        <path d="m4.55 3.9116 0.030273 0.00374q-0.00716 0.02653-0.02653 0.041178-0.019368 0.014649-0.049479 0.014649-0.037923 0-0.060221-0.023275-0.022135-0.023437-0.022135-0.065592 0-0.04362 0.022461-0.067708t0.058268-0.024088q0.034668 0 0.056641 0.0236t0.021973 0.066406q0 0.0026-1.628e-4 0.00781h-0.12891q0.00163 0.028483 0.016113 0.04362 0.014486 0.015137 0.036133 0.015137 0.016113 0 0.027506-0.00846t0.018066-0.027018zm-0.096191-0.047363h0.096517q-0.00195-0.02181-0.011068-0.032715-0.013997-0.016927-0.036295-0.016927-0.020182 0-0.034017 0.013509-0.013672 0.013509-0.015137 0.036133z"/>
        <path d="m4.7354 3.9116 0.030273 0.00374q-0.00716 0.02653-0.02653 0.041178-0.019369 0.014649-0.049479 0.014649-0.037923 0-0.060221-0.023275-0.022135-0.023437-0.022135-0.065592 0-0.04362 0.022461-0.067708t0.058268-0.024088q0.034668 0 0.056641 0.0236t0.021973 0.066406q0 0.0026-1.628e-4 0.00781h-0.12891q0.00163 0.028483 0.016113 0.04362 0.014486 0.015137 0.036133 0.015137 0.016113 0 0.027506-0.00846t0.018066-0.027018zm-0.096191-0.047363h0.096517q-0.00195-0.02181-0.011068-0.032715-0.013997-0.016927-0.036295-0.016927-0.020182 0-0.034017 0.013509-0.013672 0.013509-0.015137 0.036133z"/>
        <path d="m4.8664 3.9411 0.00423 0.025879q-0.01237 0.0026-0.022135 0.0026-0.01595 0-0.02474-0.00505t-0.01237-0.013184q-0.00358-0.0083-0.00358-0.034668v-0.099446h-0.021484v-0.022787h0.021484v-0.042806l0.029134-0.017578v0.060384h0.02946v0.022787h-0.02946v0.10107q0 0.012532 0.00146 0.016113 0.00163 0.00358 0.00505 0.0057 0.00358 0.00212 0.010091 0.00212 0.00488 0 0.012858-0.00114z"/>
        <path d="m4.8834 3.9157 0.028971-0.00456q0.00244 0.017415 0.013509 0.026693 0.01123 0.00928 0.03125 0.00928 0.020182 0 0.029948-0.00814 0.00977-0.0083 0.00977-0.019368 0-0.00993-0.00863-0.015625-0.00602-0.00391-0.029948-0.00993-0.032227-0.00814-0.044759-0.013997-0.01237-0.00602-0.01888-0.016439-0.00635-0.010579-0.00635-0.023275 0-0.011556 0.00521-0.021322 0.00537-0.00993 0.014486-0.016439 0.00684-0.00505 0.018555-0.00846 0.011882-0.00358 0.025391-0.00358 0.020345 0 0.035645 0.00586 0.015462 0.00586 0.022786 0.015951 0.00732 0.00993 0.010091 0.026693l-0.028646 0.00391q-0.00195-0.013346-0.011393-0.020833-0.00928-0.00749-0.026367-0.00749-0.020182 0-0.028809 0.00667-0.00863 0.00667-0.00863 0.015625 0 0.0057 0.00358 0.010254 0.00358 0.00472 0.01123 0.00781 0.00439 0.00163 0.025879 0.00749 0.031087 0.0083 0.043294 0.013672 0.01237 0.00521 0.019368 0.015299 7e-3 0.010091 7e-3 0.025065 0 0.014648-0.00863 0.027669-0.00846 0.012858-0.024577 0.02002-0.016113 7e-3 -0.036458 7e-3 -0.033691 0-0.051432-0.013997-0.017578-0.013997-0.022461-0.041504z"/>
      </g>
      <g stroke-width=".052083" aria-label="Code Grid">
        <path d="m5.6283 3.8784 0.046712 0.014811q-0.010742 0.039063-0.035807 0.058105-0.024902 0.01888-0.063314 0.01888-0.047526 0-0.078125-0.032389-0.030599-0.032552-0.030599-0.088867 0-0.05957 0.030762-0.092448 0.030762-0.03304 0.080892-0.03304 0.043782 0 0.071126 0.025879 0.016276 0.015299 0.024414 0.043945l-0.047689 0.011393q-0.00423-0.018555-0.017741-0.029297-0.013346-0.010742-0.032552-0.010742-0.02653 0-0.043132 0.019043-0.016439 0.019043-0.016439 0.061686 0 0.045247 0.016276 0.064453t0.042318 0.019206q0.019206 0 0.03304-0.012207 0.013835-0.012207 0.019857-0.038412z"/>
        <path d="m5.7054 3.8773q0-0.022786 0.01123-0.044108 0.011231-0.021322 0.031738-0.032552 0.02067-0.01123 0.046061-0.01123 0.039225 0 0.06429 0.025553 0.025065 0.025391 0.025065 0.06429 0 0.039225-0.025391 0.065104-0.025228 0.025716-0.063639 0.025716-0.023763 0-0.04541-0.010742-0.021484-0.010742-0.032715-0.031413-0.01123-0.020833-0.01123-0.050619zm0.046875 0.00244q0 0.025716 0.012207 0.039388t0.030111 0.013672 0.029948-0.013672q0.012207-0.013672 0.012207-0.039713 0-0.025391-0.012207-0.039063-0.012044-0.013672-0.029948-0.013672t-0.030111 0.013672-0.012207 0.039388z"/>
        <path d="m6.0781 3.9662h-0.04248v-0.025391q-0.010579 0.014811-0.025065 0.022135-0.014323 0.00716-0.028971 0.00716-0.029785 0-0.051107-0.023926-0.021159-0.024088-0.021159-0.067057 0-0.043945 0.020671-0.066732 0.020671-0.022949 0.052246-0.022949 0.028971 0 0.05013 0.024088v-0.085937h0.045736zm-0.12207-0.090169q0 0.027669 0.00765 0.040039 0.011068 0.017904 0.030924 0.017904 0.015788 0 0.026855-0.013346 0.011068-0.013509 0.011068-0.040202 0-0.029785-0.010742-0.042806-0.010742-0.013184-0.027507-0.013184-0.016276 0-0.027344 0.013021-0.010905 0.012858-0.010905 0.038574z"/>
        <path d="m6.2233 3.9111 0.045573 0.00765q-0.00879 0.025065-0.027832 0.038249-0.01888 0.013021-0.047363 0.013021-0.045085 0-0.066732-0.02946-0.01709-0.0236-0.01709-0.05957 0-0.042969 0.022461-0.06722 0.022461-0.024414 0.056803-0.024414 0.038574 0 0.060872 0.025553 0.022298 0.025391 0.021322 0.077962h-0.11458q4.882e-4 0.020345 0.011068 0.031738 0.010579 0.01123 0.026367 0.01123 0.010742 0 0.018066-0.00586 0.00732-0.00586 0.011068-0.01888zm0.0026-0.046224q-4.883e-4 -0.019857-0.010254-0.030111-0.00977-0.010417-0.023763-0.010417-0.014974 0-0.02474 0.010905-0.00977 0.010905-0.0096 0.029622z"/>
        <path d="m6.5125 3.8784v-0.040202h0.10384v0.095052q-0.015137 0.014649-0.043945 0.025879-0.028646 0.011068-0.058105 0.011068-0.037435 0-0.065267-0.015625-0.027832-0.015788-0.041829-0.044922-0.013997-0.029297-0.013997-0.063639 0-0.037272 0.015625-0.066244 0.015625-0.028971 0.045736-0.044434 0.022949-0.011881 0.057129-0.011881 0.044434 0 0.069336 0.018717 0.025065 0.018555 0.032227 0.051432l-0.047852 0.00895q-0.00505-0.017578-0.019043-0.027669-0.013835-0.010254-0.034668-0.010254-0.031575 0-0.050293 0.02002-0.018555 0.02002-0.018555 0.059408 0 0.04248 0.01888 0.063802 0.01888 0.021159 0.049479 0.021159 0.015137 0 0.030273-0.00586 0.0153-0.00602 0.026204-0.014486v-0.030273z"/>
        <path d="m6.7043 3.9662h-0.045736v-0.17285h0.04248v0.024577q0.010905-0.017415 0.019531-0.022949 0.00879-0.00553 0.019857-0.00553 0.015625 0 0.030111 0.00863l-0.01416 0.039876q-0.011556-0.00749-0.021484-0.00749-0.0096 0-0.016276 0.00537-0.00667 0.00521-0.010579 0.019043-0.00374 0.013835-0.00374 0.057943z"/>
        <path d="m6.7902 3.7699v-0.042318h0.045736v0.042318zm0 0.19629v-0.17285h0.045736v0.17285z"/>
        <path d="m7.0413 3.9662h-0.04248v-0.025391q-0.010579 0.014811-0.025065 0.022135-0.014323 0.00716-0.028971 0.00716-0.029785 0-0.051107-0.023926-0.021159-0.024088-0.021159-0.067057 0-0.043945 0.02067-0.066732 0.020671-0.022949 0.052246-0.022949 0.028971 0 0.05013 0.024088v-0.085937h0.045736zm-0.12207-0.090169q0 0.027669 0.00765 0.040039 0.011068 0.017904 0.030924 0.017904 0.015788 0 0.026855-0.013346 0.011068-0.013509 0.011068-0.040202 0-0.029785-0.010742-0.042806-0.010742-0.013184-0.027506-0.013184-0.016276 0-0.027344 0.013021-0.010905 0.012858-0.010905 0.038574z"/>
      </g>
      <g stroke-width=".052083" aria-label="Bespoke web applications">
        <path d="m7.489 3.5506v-0.23861h0.089518q0.027344 0 0.043782 0.00732 0.016602 0.00716 0.025879 0.022298 0.00944 0.014974 0.00944 0.031413 0 0.015299-0.0083 0.028809-0.0083 0.013509-0.025065 0.02181 0.021647 0.00635 0.033203 0.021647 0.011719 0.0153 0.011719 0.036133 0 0.016764-0.00716 0.03125-7e-3 0.014323-0.017415 0.022135-0.010417 0.00781-0.026204 0.011881-0.015625 0.00391-0.038411 0.00391zm0.031575-0.13835h0.051595q0.020996 0 0.030111-0.00277 0.012044-0.00358 0.018066-0.011882 0.00618-0.0083 0.00618-0.020833 0-0.011881-0.0057-0.020833-0.0057-0.00911-0.016276-0.01237-0.010579-0.00342-0.036295-0.00342h-0.047689zm0 0.11019h0.059407q0.0153 0 0.021484-0.00114 0.010905-0.00195 0.018229-0.00651 0.00732-0.00456 0.012044-0.013184 0.00472-0.00879 0.00472-0.020182 0-0.013346-0.00684-0.023112-0.00684-0.00993-0.019043-0.013835-0.012044-0.00407-0.034831-0.00407h-0.055176z"/>
        <path d="m7.8272 3.4949 0.030273 0.00374q-0.00716 0.02653-0.02653 0.041178-0.019369 0.014648-0.049479 0.014648-0.037923 0-0.060221-0.023275-0.022135-0.023437-0.022135-0.065592 0-0.04362 0.022461-0.067708 0.022461-0.024089 0.058268-0.024089 0.034668 0 0.05664 0.0236 0.021973 0.0236 0.021973 0.066406 0 0.0026-1.628e-4 0.00781h-0.12891q0.00163 0.028483 0.016113 0.04362 0.014486 0.015137 0.036133 0.015137 0.016113 0 0.027507-0.00846 0.011393-0.00846 0.018066-0.027018zm-0.096191-0.047363h0.096517q-0.00195-0.02181-0.011068-0.032715-0.013997-0.016927-0.036295-0.016927-0.020182 0-0.034017 0.013509-0.013672 0.013509-0.015137 0.036133z"/>
        <path d="m7.8826 3.499 0.028971-0.00456q0.00244 0.017415 0.013509 0.026693 0.01123 0.00928 0.03125 0.00928 0.020182 0 0.029948-0.00814 0.00977-0.0083 0.00977-0.019368 0-0.00993-0.00863-0.015625-0.00602-0.00391-0.029948-0.00993-0.032227-0.00814-0.044759-0.013997-0.01237-0.00602-0.01888-0.016439-0.00635-0.010579-0.00635-0.023275 0-0.011556 0.00521-0.021322 0.00537-0.00993 0.014486-0.016439 0.00684-0.00505 0.018555-0.00846 0.011881-0.00358 0.025391-0.00358 0.020345 0 0.035645 0.00586 0.015462 0.00586 0.022786 0.015951 0.00732 0.00993 0.010091 0.026693l-0.028646 0.00391q-0.00195-0.013346-0.011393-0.020833-0.00928-0.00749-0.026367-0.00749-0.020182 0-0.028809 0.00667-0.00863 0.00667-0.00863 0.015625 0 0.0057 0.00358 0.010254 0.00358 0.00472 0.01123 0.00781 0.00439 0.00163 0.025879 0.00749 0.031087 0.0083 0.043294 0.013672 0.01237 0.00521 0.019368 0.015299 7e-3 0.010091 7e-3 0.025065 0 0.014648-0.00863 0.027669-0.00846 0.012858-0.024577 0.02002-0.016113 7e-3 -0.036458 7e-3 -0.033691 0-0.051432-0.013997-0.017578-0.013997-0.022461-0.041504z"/>
        <path d="m8.061 3.6168v-0.23909h0.026693v0.022461q0.00944-0.013184 0.021322-0.019694 0.011882-0.00667 0.028809-0.00667 0.022135 0 0.039063 0.011393 0.016927 0.011393 0.025553 0.032226 0.00863 0.020671 0.00863 0.04541 0 0.02653-0.0096 0.047852-0.00944 0.021159-0.027669 0.032552-0.018066 0.01123-0.038086 0.01123-0.014648 0-0.026367-0.00618-0.011556-0.00618-0.019043-0.015625v0.084147zm0.02653-0.15169q0 0.033366 0.013509 0.049316 0.013509 0.015951 0.032715 0.015951 0.019531 0 0.033366-0.016439 0.013997-0.016602 0.013997-0.05127 0-0.03304-0.013672-0.049479-0.013509-0.016439-0.032389-0.016439-0.018717 0-0.033203 0.017578-0.014323 0.017415-0.014323 0.050781z"/>
        <path d="m8.2354 3.4642q0-0.048014 0.026693-0.071126 0.022298-0.019206 0.054362-0.019206 0.035644 0 0.058268 0.023437 0.022624 0.023275 0.022624 0.064453 0 0.033366-0.010091 0.052571-0.00993 0.019043-0.029134 0.029622-0.019043 0.010579-0.041667 0.010579-0.036296 0-0.058757-0.023275-0.022298-0.023275-0.022298-0.067057zm0.030111 0q0 0.033203 0.014486 0.049805 0.014486 0.016439 0.036458 0.016439 0.02181 0 0.036295-0.016602 0.014486-0.016602 0.014486-0.050619 0-0.032064-0.014648-0.048502-0.014486-0.016602-0.036133-0.016602-0.021973 0-0.036458 0.016439-0.014486 0.016439-0.014486 0.049642z"/>
        <path d="m8.4319 3.5506v-0.23861h0.029297v0.13607l0.069336-0.070312h0.037923l-0.066081 0.064128 0.072754 0.10872h-0.036133l-0.057129-0.088379-0.020671 0.019857v0.068522z"/>
        <path d="m8.7167 3.4949 0.030273 0.00374q-0.00716 0.02653-0.02653 0.041178-0.019369 0.014648-0.049479 0.014648-0.037923 0-0.060221-0.023275-0.022135-0.023437-0.022135-0.065592 0-0.04362 0.022461-0.067708 0.022461-0.024089 0.058268-0.024089 0.034668 0 0.056641 0.0236t0.021973 0.066406q0 0.0026-1.628e-4 0.00781h-0.12891q0.00163 0.028483 0.016113 0.04362 0.014486 0.015137 0.036133 0.015137 0.016113 0 0.027506-0.00846t0.018066-0.027018zm-0.096191-0.047363h0.096517q-0.00195-0.02181-0.011068-0.032715-0.013997-0.016927-0.036296-0.016927-0.020182 0-0.034017 0.013509-0.013672 0.013509-0.015136 0.036133z"/>
        <path d="m8.9083 3.5506-0.052897-0.17285h0.030273l0.027506 0.099772 0.010254 0.037109q6.51e-4 -0.00277 0.00895-0.035645l0.027506-0.10124h0.030111l0.025879 0.10026 0.00863 0.03304 0.00993-0.033366 0.029622-0.099935h0.028483l-0.054036 0.17285h-0.030436l-0.027506-0.10352-0.00667-0.02946-0.034993 0.13298z"/>
        <path d="m9.2354 3.4949 0.030273 0.00374q-0.00716 0.02653-0.02653 0.041178-0.019368 0.014648-0.049479 0.014648-0.037923 0-0.060221-0.023275-0.022135-0.023437-0.022135-0.065592 0-0.04362 0.022461-0.067708 0.022461-0.024089 0.058268-0.024089 0.034668 0 0.056641 0.0236t0.021973 0.066406q0 0.0026-1.627e-4 0.00781h-0.12891q0.00163 0.028483 0.016113 0.04362 0.014486 0.015137 0.036133 0.015137 0.016113 0 0.027506-0.00846t0.018066-0.027018zm-0.096191-0.047363h0.096517q-0.00195-0.02181-0.011068-0.032715-0.013997-0.016927-0.036296-0.016927-0.020182 0-0.034017 0.013509-0.013672 0.013509-0.015136 0.036133z"/>
        <path d="m9.3295 3.5506h-0.027181v-0.23861h0.029297v0.085124q0.018555-0.023275 0.047363-0.023275 0.01595 0 0.030111 0.00651 0.014323 0.00635 0.023437 0.018066 0.00928 0.011556 0.014486 0.027995 0.00521 0.016439 0.00521 0.035156 0 0.044434-0.021973 0.068685t-0.052734 0.024251q-0.030599 0-0.048014-0.025553zm-3.255e-4 -0.087728q0 0.031087 0.00846 0.044922 0.013835 0.022624 0.037435 0.022624 0.019206 0 0.033203-0.016602 0.013997-0.016764 0.013997-0.049805 0-0.033854-0.013509-0.049967-0.013346-0.016113-0.032389-0.016113-0.019206 0-0.033203 0.016764-0.013997 0.016601-0.013997 0.048177z"/>
        <path d="m7.7198 3.9459q-0.016276 0.013835-0.031413 0.019531-0.014974 0.0057-0.032227 0.0057-0.028483 0-0.043782-0.013835-0.0153-0.013997-0.0153-0.035645 0-0.012695 0.0057-0.023112 0.00586-0.010579 0.015137-0.016927 0.00944-0.00635 0.021159-0.0096 0.00863-0.00228 0.026042-0.00439 0.035482-0.00423 0.052246-0.010091 1.628e-4 -0.00602 1.628e-4 -0.00765 0-0.017904-0.0083-0.025228-0.01123-0.00993-0.033366-0.00993-0.020671 0-0.030599 0.00732-0.00977 0.00716-0.014486 0.025553l-0.028646-0.00391q0.00391-0.018392 0.012858-0.029622 0.00895-0.011393 0.025879-0.017415 0.016927-0.00618 0.039225-0.00618 0.022135 0 0.03597 0.00521t0.020345 0.013184q0.00651 0.00781 0.00911 0.019857 0.00146 0.00749 0.00146 0.027018v0.039063q0 0.040853 0.00179 0.051758 0.00195 0.010742 0.00749 0.020671h-0.030599q-0.00456-0.00911-0.00586-0.021322zm-0.00244-0.06543q-0.015951 0.00651-0.047852 0.011068-0.018066 0.0026-0.025553 0.00586-0.00749 0.00326-0.011556 0.0096-0.00407 0.00618-0.00407 0.013835 0 0.011719 0.00879 0.019531 0.00895 0.00781 0.026042 0.00781 0.016927 0 0.030111-0.00732 0.013184-0.00749 0.019369-0.020345 0.00472-0.00993 0.00472-0.029297z"/>
        <path d="m7.7924 4.0335v-0.23909h0.026693v0.022461q0.00944-0.013184 0.021322-0.019694 0.011881-0.00667 0.028809-0.00667 0.022135 0 0.039062 0.011393t0.025553 0.032227q0.00863 0.020671 0.00863 0.04541 0 0.02653-0.0096 0.047852-0.00944 0.021159-0.027669 0.032552-0.018066 0.011231-0.038086 0.011231-0.014648 0-0.026367-0.00618-0.011556-0.00618-0.019043-0.015625v0.084147zm0.02653-0.15169q0 0.033366 0.013509 0.049316t0.032715 0.01595q0.019531 0 0.033366-0.016439 0.013997-0.016602 0.013997-0.051269 0-0.03304-0.013672-0.049479-0.013509-0.016439-0.032389-0.016439-0.018717 0-0.033203 0.017578-0.014323 0.017415-0.014323 0.050782z"/>
        <path d="m7.9778 4.0335v-0.23909h0.026693v0.022461q0.00944-0.013184 0.021322-0.019694 0.011881-0.00667 0.028809-0.00667 0.022135 0 0.039062 0.011393t0.025553 0.032227q0.00863 0.020671 0.00863 0.04541 0 0.02653-0.0096 0.047852-0.00944 0.021159-0.027669 0.032552-0.018066 0.011231-0.038086 0.011231-0.014648 0-0.026367-0.00618-0.011556-0.00618-0.019043-0.015625v0.084147zm0.02653-0.15169q0 0.033366 0.013509 0.049316t0.032715 0.01595q0.019531 0 0.033366-0.016439 0.013997-0.016602 0.013997-0.051269 0-0.03304-0.013672-0.049479-0.013509-0.016439-0.032389-0.016439-0.018717 0-0.033203 0.017578-0.014323 0.017415-0.014323 0.050782z"/>
        <path d="m8.1625 3.9673v-0.23861h0.029297v0.23861z"/>
        <path d="m8.2374 3.7623v-0.033691h0.029297v0.033691zm0 0.20492v-0.17285h0.029297v0.17285z"/>
        <path d="m8.4241 3.9039 0.028809 0.00374q-0.00472 0.029785-0.024251 0.046712-0.019369 0.016764-0.047689 0.016764-0.035482 0-0.057129-0.023112-0.021484-0.023275-0.021484-0.066569 0-0.027995 0.00928-0.048991t0.028158-0.031413q0.019043-0.010579 0.041341-0.010579 0.028158 0 0.046061 0.014323 0.017904 0.01416 0.022949 0.040364l-0.028483 0.00439q-0.00407-0.017415-0.014486-0.026204-0.010254-0.00879-0.024902-0.00879-0.022135 0-0.03597 0.015951-0.013835 0.015788-0.013835 0.05013 0 0.034831 0.013346 0.050618 0.013346 0.015788 0.034831 0.015788 0.017253 0 0.028809-0.010579t0.014648-0.032552z"/>
        <path d="m8.5907 3.9459q-0.016276 0.013835-0.031413 0.019531-0.014974 0.0057-0.032227 0.0057-0.028483 0-0.043782-0.013835-0.0153-0.013997-0.0153-0.035645 0-0.012695 0.0057-0.023112 0.00586-0.010579 0.015137-0.016927 0.00944-0.00635 0.021159-0.0096 0.00863-0.00228 0.026042-0.00439 0.035482-0.00423 0.052246-0.010091 1.628e-4 -0.00602 1.628e-4 -0.00765 0-0.017904-0.0083-0.025228-0.01123-0.00993-0.033366-0.00993-0.020671 0-0.030599 0.00732-0.00977 0.00716-0.014486 0.025553l-0.028646-0.00391q0.00391-0.018392 0.012858-0.029622 0.00895-0.011393 0.025879-0.017415 0.016927-0.00618 0.039225-0.00618 0.022135 0 0.03597 0.00521t0.020345 0.013184q0.00651 0.00781 0.00911 0.019857 0.00146 0.00749 0.00146 0.027018v0.039063q0 0.040853 0.00179 0.051758 0.00195 0.010742 0.00749 0.020671h-0.030599q-0.00456-0.00911-0.00586-0.021322zm-0.00244-0.06543q-0.015951 0.00651-0.047852 0.011068-0.018066 0.0026-0.025553 0.00586-0.00749 0.00326-0.011556 0.0096-0.00407 0.00618-0.00407 0.013835 0 0.011719 0.00879 0.019531 0.00895 0.00781 0.026042 0.00781 0.016927 0 0.030111-0.00732 0.013184-0.00749 0.019368-0.020345 0.00472-0.00993 0.00472-0.029297z"/>
        <path d="m8.7273 3.9411 0.00423 0.025879q-0.01237 0.0026-0.022135 0.0026-0.015951 0-0.02474-0.00505-0.00879-0.00505-0.01237-0.013184-0.00358-0.0083-0.00358-0.034668v-0.099446h-0.021484v-0.022787h0.021484v-0.042806l0.029134-0.017578v0.060384h0.02946v0.022787h-0.02946v0.10107q0 0.012532 0.00146 0.016113 0.00163 0.00358 0.00505 0.0057 0.00358 0.00212 0.010091 0.00212 0.00488 0 0.012858-0.00114z"/>
        <path d="m8.7561 3.7623v-0.033691h0.029297v0.033691zm0 0.20492v-0.17285h0.029297v0.17285z"/>
        <path d="m8.8191 3.8808q0-0.048014 0.026693-0.071126 0.022298-0.019206 0.054362-0.019206 0.035645 0 0.058268 0.023437 0.022624 0.023275 0.022624 0.064453 0 0.033366-0.010091 0.052572-0.00993 0.019043-0.029134 0.029622-0.019043 0.010579-0.041667 0.010579-0.036296 0-0.058757-0.023275-0.022298-0.023275-0.022298-0.067057zm0.030111 0q0 0.033203 0.014486 0.049805 0.014486 0.016439 0.036458 0.016439 0.02181 0 0.036295-0.016601 0.014486-0.016602 0.014486-0.050618 0-0.032064-0.014648-0.048503-0.014486-0.016602-0.036133-0.016602-0.021973 0-0.036458 0.016439-0.014486 0.016439-0.014486 0.049642z"/>
        <path d="m9.0154 3.9673v-0.17285h0.026367v0.024577q0.019043-0.028483 0.055013-0.028483 0.015625 0 0.028646 0.0057 0.013184 0.00553 0.019694 0.014648 0.00651 0.00911 0.00911 0.021647 0.00163 0.00814 0.00163 0.028483v0.10628h-0.029295v-0.10514q0-0.017904-0.00342-0.026693-0.00342-0.00895-0.012207-0.01416-0.00863-0.00537-0.020345-0.00537-0.018717 0-0.032389 0.011881-0.013509 0.011882-0.013509 0.045085v0.094401z"/>
        <path d="m9.189 3.9157 0.028971-0.00456q0.00244 0.017415 0.013509 0.026693 0.01123 0.00928 0.03125 0.00928 0.020182 0 0.029948-0.00814 0.00977-0.0083 0.00977-0.019368 0-0.00993-0.00863-0.015625-0.00602-0.00391-0.029948-0.00993-0.032227-0.00814-0.044759-0.013997-0.01237-0.00602-0.01888-0.016439-0.00635-0.010579-0.00635-0.023275 0-0.011556 0.00521-0.021322 0.00537-0.00993 0.014486-0.016439 0.00684-0.00505 0.018555-0.00846 0.011881-0.00358 0.025391-0.00358 0.020345 0 0.035645 0.00586 0.015462 0.00586 0.022786 0.015951 0.00732 0.00993 0.010091 0.026693l-0.028646 0.00391q-0.00195-0.013346-0.011393-0.020833-0.00928-0.00749-0.026367-0.00749-0.020182 0-0.028809 0.00667-0.00863 0.00667-0.00863 0.015625 0 0.0057 0.00358 0.010254 0.00358 0.00472 0.01123 0.00781 0.00439 0.00163 0.025879 0.00749 0.031087 0.0083 0.043294 0.013672 0.01237 0.00521 0.019368 0.015299 7e-3 0.010091 7e-3 0.025065 0 0.014648-0.00863 0.027669-0.00846 0.012858-0.024577 0.02002-0.016113 7e-3 -0.036458 7e-3 -0.033691 0-0.051432-0.013997-0.017578-0.013997-0.022461-0.041504z"/>
      </g>
      <path d="m1.8214 4.4754v-0.27902" fill="none" stroke="#000" stroke-width=".036458"/>
      <path d="m4.0378 4.4754v-0.27902" fill="none" stroke="#000" stroke-width=".036458"/>
      <path d="m6.2542 4.4754v-0.27902" fill="none" stroke="#000" stroke-width=".036458"/>
      <path d="m8.4706 4.4754v-0.27902" fill="none" stroke="#000" stroke-width=".036458"/>
    </g>
  </g>
</svg>
